<svg width="31" height="23" viewBox="0 0 31 23" fill="none" xmlns="http://www.w3.org/2000/svg">
<path d="M26.2811 1.94208C26.272 1.92549 26.257 1.9127 26.2389 1.90614C24.2305 1.00866 22.1111 0.368455 19.9337 0.00151408C19.9142 -0.00197729 19.894 0.000604683 19.876 0.0088954C19.858 0.0171861 19.8432 0.0307666 19.8336 0.047718C19.5448 0.558164 19.2826 1.08247 19.048 1.61865C16.6997 1.27154 14.311 1.27154 11.9626 1.61865C11.7271 1.08115 11.4613 0.556708 11.1665 0.047718C11.1564 0.0312717 11.1414 0.0181146 11.1236 0.00989554C11.1058 0.00167647 11.0859 -0.00123913 11.0664 0.00151408C8.88515 0.366802 6.76205 1.00706 4.7506 1.90614C4.73296 1.91342 4.71817 1.92602 4.70842 1.94208C0.69122 7.78943 -0.410611 13.4879 0.127125 19.1196C0.128648 19.1338 0.133184 19.1475 0.140445 19.1599C0.147706 19.1723 0.157533 19.183 0.1693 19.1915C2.50932 20.877 5.12623 22.1633 7.90848 22.9956C7.92847 23.0017 7.94991 23.0014 7.96976 22.995C7.98962 22.9885 8.0069 22.9762 8.01919 22.9597C8.61615 22.1683 9.14513 21.3304 9.60076 20.4544C9.60683 20.4424 9.61028 20.4292 9.61089 20.4158C9.6115 20.4024 9.60926 20.389 9.60431 20.3765C9.59936 20.364 9.59181 20.3526 9.58213 20.343C9.57245 20.3334 9.56084 20.3259 9.54805 20.3209C8.71219 20.0091 7.90305 19.6331 7.12823 19.1967C7.11454 19.1885 7.10307 19.1772 7.09477 19.1639C7.08648 19.1505 7.08161 19.1353 7.08057 19.1197C7.07954 19.1041 7.08237 19.0885 7.08883 19.0742C7.09529 19.0599 7.10519 19.0473 7.11769 19.0375C7.28112 18.9194 7.44455 18.7962 7.59743 18.673C7.61093 18.6615 7.6275 18.6539 7.64523 18.6512C7.66296 18.6485 7.68112 18.6507 7.6976 18.6576C12.7692 20.9113 18.2625 20.9113 23.2761 18.6576C23.2921 18.65 23.31 18.6469 23.3277 18.6487C23.3454 18.6506 23.3623 18.6572 23.3763 18.6679C23.5292 18.7911 23.6926 18.9194 23.856 19.0375C23.8685 19.0473 23.8784 19.0599 23.8849 19.0742C23.8913 19.0885 23.8942 19.1041 23.8931 19.1197C23.8921 19.1353 23.8872 19.1505 23.879 19.1639C23.8707 19.1772 23.8592 19.1885 23.8455 19.1967C23.0727 19.6354 22.2632 20.0098 21.4257 20.3158C21.4129 20.3208 21.4013 20.3283 21.3916 20.3379C21.3819 20.3474 21.3744 20.3588 21.3694 20.3714C21.3645 20.3839 21.3622 20.3973 21.3628 20.4107C21.3634 20.4241 21.3669 20.4372 21.373 20.4493C21.8366 21.3209 22.3652 22.1582 22.9545 22.9546C22.9668 22.9711 22.9841 22.9834 23.004 22.9899C23.0238 22.9963 23.0452 22.9965 23.0652 22.9905C25.8555 22.1619 28.48 20.8754 30.8255 19.1864C30.8375 19.1782 30.8475 19.1674 30.8548 19.155C30.8621 19.1426 30.8665 19.1288 30.8677 19.1145C31.5109 12.61 29.7817 6.95776 26.2811 1.94208ZM10.3599 15.6903C8.83106 15.6903 7.57635 14.3247 7.57635 12.6511C7.57635 10.9775 8.80998 9.60679 10.3599 9.60679C11.9257 9.60679 13.1699 10.9826 13.1435 12.646C13.1435 14.3247 11.9099 15.6903 10.3599 15.6903ZM20.6612 15.6903C19.1324 15.6903 17.8777 14.3247 17.8777 12.6511C17.8777 10.9775 19.106 9.60679 20.6612 9.60679C22.227 9.60679 23.4712 10.9826 23.4448 12.646C23.4448 14.3247 22.2217 15.6903 20.6612 15.6903Z" fill="white"/>
</svg>
