<svg width="27" height="27" viewBox="0 0 27 27" fill="none" xmlns="http://www.w3.org/2000/svg">
<path d="M11.9697 2.60333C11.9697 1.7045 12.6959 0.978333 13.5947 0.978333C14.4936 0.978333 15.2197 1.7045 15.2197 2.60333V14.9279L18.9471 11.2006C19.5818 10.5658 20.6127 10.5658 21.2475 11.2006C21.8822 11.8354 21.8822 12.8662 21.2475 13.501L14.7475 20.001C14.1127 20.6358 13.0818 20.6358 12.4471 20.001L5.94707 13.501C5.3123 12.8662 5.3123 11.8354 5.94707 11.2006C6.58183 10.5658 7.6127 10.5658 8.24746 11.2006L11.9697 14.9279V2.60333ZM23.3447 18.8533C25.1373 18.8533 26.5947 20.3108 26.5947 22.1033V23.7283C26.5947 25.5209 25.1373 26.9783 23.3447 26.9783H3.84473C2.05215 26.9783 0.594727 25.5209 0.594727 23.7283V22.1033C0.594727 20.3108 2.05215 18.8533 3.84473 18.8533H8.99902L11.2994 21.1537C12.5689 22.4233 14.6256 22.4233 15.8951 21.1537L18.1904 18.8533H23.3447ZM4.65723 21.6971C4.33399 21.6971 4.024 21.8255 3.79544 22.054C3.56688 22.2826 3.43848 22.5926 3.43848 22.9158C3.43848 23.2391 3.56688 23.5491 3.79544 23.7776C4.024 24.0062 4.33399 24.1346 4.65723 24.1346C4.98046 24.1346 5.29045 24.0062 5.51901 23.7776C5.74757 23.5491 5.87598 23.2391 5.87598 22.9158C5.87598 22.5926 5.74757 22.2826 5.51901 22.054C5.29045 21.8255 4.98046 21.6971 4.65723 21.6971Z" fill="white"/>
</svg>
