<svg width="27" height="27" viewBox="0 0 27 27" fill="none" xmlns="http://www.w3.org/2000/svg">
<path d="M27 13.5503C27 6.06587 20.9566 0 13.5 0C6.04336 0 0 6.06587 0 13.5503C0 19.902 4.36113 25.2374 10.241 26.7036V17.6895H7.45664V13.5503H10.241V11.7665C10.241 7.15624 12.3188 5.01784 16.8328 5.01784C17.6871 5.01784 19.1637 5.18722 19.7701 5.3566V9.1041C19.4537 9.07234 18.9 9.05117 18.2092 9.05117C15.9943 9.05117 15.14 9.89277 15.14 12.0788V13.5503H19.5486L18.7893 17.6895H15.1348V27C21.8215 26.1902 27 20.4789 27 13.5503Z" fill="white"/>
</svg>
